<svg width="118" height="30" viewBox="0 0 118 30" fill="none" xmlns="http://www.w3.org/2000/svg">
<path d="M11.8495 0.810974H17.2556V29.2848H11.8495V17.3623H5.41017V29.2848H0V0.810974H5.41017V12.4405H11.8495V0.810974Z" fill="white"/>
<path d="M31.7166 29.7283C31.0057 29.7392 30.3 29.609 29.6426 29.3455C28.9852 29.082 28.3898 28.6909 27.8929 28.1959C27.3839 27.7205 26.9808 27.1482 26.7086 26.5147C26.4363 25.8812 26.3009 25.2001 26.3105 24.5135V5.61009C26.2999 4.91748 26.4347 4.23005 26.7068 3.59C26.9789 2.94995 27.3825 2.37077 27.8929 1.88801C28.388 1.38997 28.9828 0.996022 29.6404 0.730422C30.2981 0.464821 31.0047 0.333194 31.7166 0.343737H38.6847C39.406 0.327412 40.1232 0.454949 40.7919 0.718483C41.4607 0.982016 42.067 1.37597 42.5735 1.87612C43.0832 2.36127 43.4854 2.94286 43.7554 3.58502C44.0255 4.22718 44.1576 4.91634 44.1437 5.61009V24.5135C44.154 25.1991 44.0199 25.8794 43.7499 26.5128C43.4799 27.1461 43.0795 27.7189 42.5735 28.1959C42.067 28.6961 41.4607 29.09 40.7919 29.3536C40.1232 29.6171 39.406 29.7446 38.6847 29.7283H31.7166ZM33.2786 24.9292H37.1756C37.3889 24.9367 37.6012 24.8975 37.7969 24.8146C37.9926 24.7317 38.1667 24.6071 38.3064 24.4501C38.5908 24.1369 38.7446 23.7316 38.7376 23.3137V6.7584C38.7459 6.34383 38.5917 5.94171 38.3064 5.63382C38.1646 5.4803 37.9897 5.35917 37.7942 5.27909C37.5987 5.199 37.3875 5.16196 37.1756 5.17057H33.2786C33.0689 5.16453 32.8602 5.20278 32.6671 5.28276C32.474 5.36274 32.301 5.48251 32.16 5.63382C31.8658 5.9372 31.7065 6.34134 31.7166 6.7584V23.3137C31.708 23.734 31.8669 24.1412 32.16 24.4501C32.2989 24.6049 32.4712 24.7281 32.6645 24.8109C32.8578 24.8937 33.0675 24.9341 33.2786 24.9292Z" fill="white"/>
<path d="M58.3281 29.7283C57.6234 29.7387 56.9239 29.608 56.2732 29.3444C55.6224 29.0808 55.0342 28.6899 54.5451 28.1959C54.0341 27.7115 53.6308 27.1302 53.36 26.4879C53.0892 25.8456 52.9567 25.1561 52.9708 24.462V0.810974H58.3729V23.2147C58.3574 23.6487 58.5098 24.0726 58.8 24.4025C58.9322 24.5556 59.0981 24.6778 59.2854 24.76C59.4727 24.8423 59.6766 24.8825 59.882 24.8777H63.2746C63.4793 24.886 63.6833 24.8486 63.8708 24.7683C64.0584 24.688 64.2245 24.5669 64.3566 24.4144C64.6344 24.0789 64.7788 23.6572 64.7634 23.2265V0.822865H70.1695V24.4738C70.1864 25.169 70.0564 25.8602 69.7877 26.5045C69.519 27.1488 69.1173 27.7326 68.6074 28.2197C68.1153 28.7122 67.5245 29.1013 66.8717 29.3628C66.2189 29.6244 65.518 29.7528 64.8122 29.7401L58.3281 29.7283Z" fill="white"/>
<path d="M83.6583 29.7283C82.9519 29.738 82.2511 29.6058 81.5995 29.3401C80.9479 29.0744 80.3596 28.6809 79.8712 28.184C79.3632 27.7001 78.962 27.1205 78.6921 26.4805C78.4221 25.8405 78.289 25.1537 78.301 24.4619V20.4706H83.6583V23.2146C83.6465 23.6448 83.7905 24.0653 84.0651 24.4025C84.1886 24.5591 84.3485 24.6848 84.5316 24.7695C84.7148 24.8542 84.916 24.8953 85.1186 24.8896H87.9661C88.1781 24.8949 88.3886 24.8539 88.5822 24.7696C88.7758 24.6853 88.9475 24.5599 89.0847 24.4025C89.3804 24.0748 89.5387 23.6507 89.5281 23.2146V19.4174C89.5258 19.135 89.4381 18.8596 89.2759 18.6254C89.1146 18.3851 88.8755 18.2039 88.5966 18.1107L81.5268 15.6161C80.6131 15.3091 79.8124 14.7473 79.2244 14.0005C78.6745 13.2613 78.3887 12.367 78.4108 11.4545V5.57444C78.3998 4.88201 78.535 4.19472 78.8078 3.55517C79.0807 2.91563 79.4855 2.33742 79.9973 1.85632C80.4924 1.35828 81.0872 0.964287 81.7449 0.698686C82.4025 0.433085 83.1091 0.301506 83.821 0.312049H89.4915C90.1979 0.302396 90.8987 0.434539 91.5503 0.700232C92.2019 0.965926 92.7902 1.35948 93.2786 1.85632C93.7859 2.33991 94.1866 2.91895 94.4566 3.55817C94.7265 4.19739 94.86 4.88341 94.8488 5.57444V9.13812H89.4915V6.81381C89.5 6.39139 89.3561 5.97942 89.0847 5.64965C88.9621 5.49599 88.8038 5.37282 88.6227 5.29023C88.4417 5.20763 88.2432 5.16799 88.0434 5.17451H85.3505C85.1414 5.16841 84.9334 5.20792 84.742 5.29013C84.5506 5.37234 84.3804 5.49517 84.244 5.64965C83.9646 5.97501 83.8195 6.39004 83.8373 6.81381V10.2428C83.8349 10.5328 83.9182 10.8173 84.0773 11.0625C84.1481 11.1828 84.2441 11.2872 84.359 11.3691C84.4739 11.4509 84.6052 11.5083 84.7444 11.5376L91.8102 14.0362C92.7287 14.3465 93.5335 14.9123 94.1247 15.6636C94.674 16.3987 94.9598 17.2891 94.9383 18.1978V24.4659C94.9489 25.1585 94.8141 25.8459 94.542 26.486C94.2698 27.126 93.8662 27.7052 93.3559 28.188C92.8606 28.6858 92.2658 29.0797 91.6082 29.3453C90.9506 29.6109 90.2441 29.7426 89.5322 29.7323L83.6583 29.7283Z" fill="white"/>
<path d="M108.48 24.462H117.311V29.2848H103.074V0.810974H117.035V5.61007H108.492V12.7374H114.732V17.1366H108.48V24.462Z" fill="white"/>
</svg>
