<svg width="137" height="34" viewBox="0 0 137 34" fill="none" xmlns="http://www.w3.org/2000/svg">
<path d="M13.1322 4.96143H18.4203V33.4392H13.1322V25.7258L6.16404 14.8288V33.4392H0.8759V4.96143H5.05353L13.1525 17.7432L13.1322 4.96143Z" fill="white"/>
<path d="M39.9187 33.4392L38.7878 27.8957H32.2793L31.1485 33.4392H25.6814L32.9505 4.86639H38.2387L45.5078 33.4392H39.9187ZM33.2027 23.5718H37.8563L35.5417 12.2828L33.2027 23.5718Z" fill="white"/>
<path d="M63.5851 33.4393L59.6881 23.0096H58.061V33.4393H52.7729V4.9615H62.6332C63.3463 4.94779 64.0547 5.07672 64.7145 5.34031C65.3743 5.60389 65.9715 5.99652 66.4691 6.49388C66.9797 6.97855 67.3828 7.55995 67.6536 8.20216C67.9243 8.84437 68.057 9.53374 68.0434 10.2278V17.7947C68.0422 18.7495 67.7599 19.6839 67.2298 20.4873C66.7035 21.3281 65.9509 22.0127 65.0535 22.4671L69.6298 33.4591L63.5851 33.4393ZM58.0773 9.28541V18.7886H61.12C61.3288 18.7919 61.5357 18.7512 61.7268 18.6692C61.9178 18.5871 62.0883 18.4658 62.2264 18.3134C62.5257 18.0059 62.6892 17.5965 62.682 17.173V10.8376C62.686 10.6296 62.6477 10.4229 62.5696 10.2293C62.4914 10.0356 62.3748 9.85887 62.2264 9.70912C62.0865 9.55974 61.9154 9.44113 61.7246 9.36124C61.5338 9.28136 61.3277 9.24201 61.12 9.24582L58.0773 9.28541Z" fill="white"/>
<path d="M76.7648 33.4392V4.96143H82.175V33.4392H76.7648Z" fill="white"/>
<path d="M103.803 4.96143H109.112V33.4392H103.803V25.7258L96.8353 14.8288V33.4392H91.5471V4.96143H95.7207L103.82 17.7432L103.803 4.96143Z" fill="white"/>
<path d="M123.593 33.8788C122.883 33.8895 122.177 33.7595 121.52 33.4968C120.863 33.234 120.267 32.844 119.77 32.3503C119.26 31.8747 118.856 31.3019 118.584 30.6676C118.311 30.0333 118.176 29.3512 118.187 28.6639V9.76054C118.175 9.06837 118.31 8.38118 118.582 7.74162C118.854 7.10205 119.258 6.52373 119.77 6.04243C120.265 5.54439 120.859 5.15039 121.517 4.88479C122.175 4.61919 122.881 4.48761 123.593 4.49815H130.561C131.282 4.48186 131.998 4.60905 132.666 4.87189C133.334 5.13472 133.94 5.52763 134.446 6.02657C134.957 6.51124 135.36 7.09264 135.631 7.73485C135.901 8.37706 136.034 9.06648 136.02 9.76054V28.6599C136.031 29.3465 135.896 30.0278 135.626 30.6619C135.355 31.2959 134.953 31.8692 134.446 32.3464C133.94 32.8453 133.334 33.2383 132.666 33.5011C131.998 33.7639 131.282 33.8911 130.561 33.8748L123.593 33.8788ZM125.151 29.0797H129.052C129.265 29.0874 129.477 29.0487 129.673 28.9665C129.868 28.8843 130.043 28.7606 130.183 28.6045C130.459 28.2862 130.603 27.8801 130.59 27.4641V10.9128C130.605 10.5014 130.46 10.0995 130.183 9.78824C130.042 9.63378 129.867 9.51179 129.672 9.43099C129.476 9.35019 129.265 9.31263 129.052 9.32103H125.151C124.941 9.31521 124.732 9.35398 124.539 9.43467C124.346 9.51535 124.173 9.63599 124.033 9.78824C123.74 10.0922 123.582 10.4963 123.593 10.9128V27.4641C123.586 27.8847 123.743 28.2923 124.033 28.6045C124.17 28.756 124.339 28.8769 124.528 28.9589C124.718 29.041 124.923 29.0822 125.131 29.0797H125.151Z" fill="white"/>
<path d="M102.245 4.5417C101.301 4.51273 100.369 4.31826 99.4956 3.96757C98.2508 3.53201 97.7383 3.35384 96.4162 4.33187L94.1627 1.4532C97.0915 -0.716686 99.2922 0.0514857 100.748 0.56228C101.969 0.985963 102.575 1.19975 103.962 0.281112L106.049 3.27463C104.945 4.06761 103.617 4.51005 102.245 4.5417Z" fill="white"/>
</svg>
