<svg width="30" height="40" viewBox="0 0 30 40" fill="none" xmlns="http://www.w3.org/2000/svg">
<path d="M3.8949 29.3662C3.39274 29.3786 2.89412 29.2812 2.43579 29.0811C1.97747 28.881 1.57113 28.5833 1.24676 28.2099C0.914405 27.8539 0.667244 27.4307 0.523054 26.9706C0.378863 26.5105 0.341232 26.025 0.412867 25.5491L1.86507 13.9631C1.99588 12.9059 2.53197 11.9358 3.36609 11.2468C4.15451 10.5273 5.19382 10.1254 6.27455 10.1223H10.021C10.5275 10.1087 11.0306 10.2055 11.4937 10.4056C11.9568 10.6056 12.3681 10.9039 12.6976 11.2785C13.0358 11.6361 13.2876 12.0627 13.4347 12.5272C13.5818 12.9916 13.6204 13.4822 13.5478 13.9631L12.1159 25.5491C11.9746 26.5948 11.4362 27.5511 10.6068 28.2297C9.80276 28.9619 8.74231 29.3683 7.64133 29.3662H3.8949ZM4.79794 26.7924H7.35253C7.59878 26.7963 7.8434 26.7528 8.07236 26.6645C8.30132 26.5762 8.5101 26.4447 8.68675 26.2777C9.05092 25.9558 9.27624 25.5115 9.31728 25.0343L10.6596 14.4779C10.7005 14.256 10.6923 14.0282 10.6354 13.8097C10.5786 13.5912 10.4745 13.387 10.3302 13.2108C10.1848 13.034 9.99835 12.8933 9.78618 12.8004C9.57401 12.7074 9.34219 12.6649 9.10982 12.6762H6.59592C6.35343 12.6772 6.11352 12.7249 5.89009 12.8166C5.66666 12.9084 5.46413 13.0424 5.29422 13.2108C4.92613 13.5406 4.69828 13.9927 4.65558 14.4779L3.2888 25.0343C3.25486 25.2541 3.26882 25.4784 3.32979 25.6927C3.39077 25.9069 3.49738 26.1062 3.6427 26.2777C3.78074 26.4452 3.95708 26.5789 4.15765 26.6683C4.35823 26.7576 4.57749 26.8001 4.79794 26.7924Z" fill="white"/>
<path d="M14.7763 38.9999L15.1261 36.4064H16.1187C16.637 36.4108 17.1375 36.2225 17.518 35.8798C17.901 35.5703 18.1435 35.1265 18.1932 34.6443L20.9471 12.89H18.6977L19.0068 10.4865H21.2115L21.9844 4.90737C22.1133 3.83213 22.6518 2.84306 23.4936 2.13561C24.3228 1.388 25.4142 0.977196 26.5444 0.987304H29.1681L28.8387 3.58486H26.9431C26.4168 3.57806 25.9093 3.77455 25.5315 4.13129C25.1574 4.45455 24.9209 4.90226 24.8685 5.38652L24.2095 10.4944H27.6265L27.3173 12.898H23.9207L21.1221 35.1037C20.9916 36.1883 20.4347 37.1817 19.5681 37.8754C18.7202 38.6217 17.6157 39.0315 16.4726 39.0237L14.7763 38.9999Z" fill="white"/>
</svg>
