<svg width="15" height="18" viewBox="0 0 15 18" fill="none" xmlns="http://www.w3.org/2000/svg">
<g clip-path="url(#clip0_151_199)">
<path d="M13.6808 6.47524C13.5221 6.58054 13.353 6.68145 13.1751 6.77797C12.2444 7.25822 11.2445 7.59222 10.211 7.7681C9.49244 7.89728 8.76499 7.9716 8.03502 7.9904C7.92815 7.9927 7.82644 8.03653 7.75169 8.11253C7.67693 8.18853 7.63508 8.29064 7.6351 8.39697C7.6351 8.79477 7.6351 9.45729 7.6351 10.2631C7.6351 12.4818 7.6351 15.7812 7.6351 17.5903C7.63477 17.6776 7.66254 17.7626 7.71436 17.833C7.76617 17.9034 7.83929 17.9554 7.923 17.9814C8.0067 18.0074 8.09659 18.0061 8.17946 17.9775C8.26233 17.949 8.33383 17.8948 8.38347 17.8229L10.5536 14.7121C12.7972 14.1403 14.3439 12.9293 14.3439 11.5297L14.9967 6.35384C15.0069 6.27403 14.9932 6.19301 14.9572 6.12095C14.9213 6.04889 14.8647 5.98901 14.7946 5.94884C14.7245 5.90868 14.6441 5.89001 14.5634 5.8952C14.4827 5.90038 14.4053 5.92918 14.341 5.97798L13.6808 6.47524Z" fill="#E30814"/>
<path d="M6.99553 8.36777C6.9954 8.26445 6.95587 8.16503 6.88492 8.08957C6.81397 8.01411 6.71689 7.96822 6.61326 7.96119C3.02434 7.71695 0.22495 6.20617 0.0264637 4.32684H0L0.923328 11.6555C1.03507 13.3579 3.43013 14.7546 6.54563 15.0193C6.60204 15.0235 6.65872 15.0161 6.71211 14.9975C6.76549 14.9789 6.81444 14.9495 6.85586 14.9112C6.89728 14.8729 6.93029 14.8264 6.95281 14.7748C6.97533 14.7232 6.98687 14.6675 6.98671 14.6112L6.99553 8.36777Z" fill="#E30814"/>
<path d="M8.82896 1.19266C8.83295 1.08515 8.7941 0.980419 8.72086 0.901263C8.64761 0.822107 8.54591 0.774929 8.43787 0.76999C8.17322 0.756827 7.90564 0.750977 7.63364 0.750977C3.42573 0.750977 0.0147095 2.24128 0.0147095 4.08112C0.0147095 5.40762 1.79079 6.55276 4.35935 7.08804C5.42513 6.79188 6.52706 6.64422 7.63364 6.64929C7.83065 6.64929 8.02473 6.64928 8.22174 6.66391C8.2761 6.66666 8.33047 6.65863 8.38167 6.64027C8.43287 6.62191 8.47989 6.59359 8.51999 6.55697C8.56008 6.52035 8.59245 6.47617 8.61521 6.42698C8.63796 6.3778 8.65065 6.32461 8.65253 6.2705L8.82896 1.19266Z" fill="#E30814"/>
</g>
<defs>
<clipPath id="clip0_151_199">
<rect width="15" height="17.249" fill="white" transform="translate(0 0.750977)"/>
</clipPath>
</defs>
</svg>
