<svg width="56" height="61" viewBox="0 0 56 61" fill="none" xmlns="http://www.w3.org/2000/svg">
<g clip-path="url(#clip0_151_221)">
<path d="M10.0181 56.3754C10.0181 58.0224 8.99213 58.9808 7.2327 58.9808H5.98857V60.9163H4.16412V53.9374H7.2327C8.99213 53.9188 10.0181 54.8168 10.0181 56.3754ZM5.96534 55.3704V57.5199H7.10735C7.25866 57.5419 7.41299 57.5296 7.55891 57.4839C7.70484 57.4381 7.83866 57.3601 7.9505 57.2556C8.06233 57.1512 8.14934 57.0228 8.20508 56.8801C8.26082 56.7374 8.28389 56.584 8.27257 56.4312C8.27257 55.7426 7.84548 55.3704 7.10735 55.3704H5.96534Z" fill="white"/>
<path d="M17.8264 57.9805C17.8264 59.8416 16.5916 61 14.6325 61C12.6735 61 11.3829 59.8276 11.3829 57.9805V53.9188H13.2073V57.9805C13.194 58.173 13.2215 58.3662 13.288 58.5473C13.3544 58.7284 13.4584 58.8934 13.593 59.0313C13.7276 59.1693 13.8898 59.2772 14.069 59.3479C14.2481 59.4186 14.4402 59.4504 14.6325 59.4414C14.8217 59.4484 15.0101 59.4147 15.1851 59.3424C15.3601 59.2702 15.5177 59.1611 15.647 59.0226C15.7764 58.8842 15.8747 58.7195 15.9351 58.5397C15.9955 58.3599 16.0168 58.1692 15.9974 57.9805V53.9188H17.8171L17.8264 57.9805ZM16.3919 52.7603L15.0875 53.9188H13.7412L14.8089 52.202L16.3919 52.7603Z" fill="white"/>
<path d="M25.5698 55.6868C25.5709 56.0395 25.4519 56.3821 25.2324 56.6579C25.013 56.9337 24.7062 57.1262 24.3628 57.2035C24.7749 57.2742 25.1475 57.4924 25.4113 57.8175C25.6751 58.1426 25.8122 58.5527 25.7972 58.9715C25.7972 60.1672 24.7527 60.9163 23.1093 60.9163H19.6415V53.9374H22.9608C24.5624 53.9188 25.5698 54.6074 25.5698 55.6868ZM21.4985 55.3704V56.7289H22.8912C23.3879 56.7289 23.7082 56.4684 23.7082 56.031C23.7082 55.5937 23.3554 55.3704 22.8912 55.3704H21.4985ZM21.4985 58.0456V59.5251H22.8912C23.5318 59.5251 23.9264 59.246 23.9264 58.7668C23.9264 58.2875 23.5318 58.0456 22.8912 58.0456H21.4985Z" fill="white"/>
<path d="M29.214 59.3623H32.1757V60.9163H27.3942V53.9374H29.2186L29.214 59.3623Z" fill="white"/>
<path d="M35.4253 60.9163H33.6056V53.9374H35.4253V60.9163Z" fill="white"/>
<path d="M43.4751 55.068L42.4213 56.3335C42.2146 56.0635 41.9528 55.8408 41.6534 55.6804C41.354 55.5199 41.0239 55.4253 40.6851 55.403C40.1618 55.403 39.66 55.6113 39.29 55.9821C38.92 56.3529 38.7121 56.8559 38.7121 57.3803C38.7121 57.9047 38.92 58.4077 39.29 58.7785C39.66 59.1493 40.1618 59.3576 40.6851 59.3576C41.347 59.317 41.9682 59.024 42.4213 58.5388L43.4844 59.688C42.7267 60.4856 41.6859 60.952 40.5876 60.9861C40.1079 61.0038 39.6296 60.9235 39.1819 60.75C38.7341 60.5766 38.3263 60.3136 37.9832 59.9772C37.6401 59.6407 37.3689 59.2378 37.1862 58.793C37.0034 58.3481 36.9129 57.8706 36.9202 57.3896C36.9202 55.375 38.5264 53.8536 40.634 53.8536C41.1642 53.8573 41.6884 53.9665 42.1761 54.175C42.6639 54.3835 43.1054 54.687 43.4751 55.068Z" fill="white"/>
<path d="M49.4311 59.6787H46.4137L45.9494 60.9163H44.0925L47.0868 53.9374H48.9437L51.873 60.9163H49.9093L49.4311 59.6787ZM48.8927 58.2829L47.9595 55.7845L46.9847 58.2829H48.8927Z" fill="white"/>
<path d="M6.55492 45.6418L5.49649 46.9073C5.29073 46.6375 5.02978 46.4148 4.73113 46.2544C4.43248 46.0939 4.10303 45.9992 3.7649 45.9768C3.24163 45.9768 2.73981 46.1851 2.3698 46.556C1.9998 46.9268 1.79192 47.4297 1.79192 47.9542C1.79192 48.4786 1.9998 48.9815 2.3698 49.3523C2.73981 49.7232 3.24163 49.9315 3.7649 49.9315C4.42514 49.8897 5.04455 49.5968 5.49649 49.1126L6.56422 50.2618C5.80538 51.0606 4.76276 51.5271 3.66278 51.5599C3.18347 51.577 2.7057 51.4962 2.2585 51.3225C1.81131 51.1487 1.40403 50.8857 1.06144 50.5493C0.718843 50.2129 0.448082 49.8102 0.265611 49.3657C0.0831401 48.9212 -0.00722175 48.4441 4.91439e-06 47.9635C4.91439e-06 45.9489 1.6016 44.4275 3.71384 44.4275C4.24398 44.4317 4.76802 44.5412 5.25568 44.7496C5.74334 44.958 6.18494 45.2613 6.55492 45.6418Z" fill="white"/>
<path d="M14.2518 48.559C14.2518 50.4201 13.017 51.5739 11.0533 51.5739C9.08961 51.5739 7.8037 50.4061 7.8037 48.559V44.4927H9.62811V48.559C9.6148 48.7509 9.64218 48.9435 9.70841 49.124C9.77465 49.3046 9.87824 49.469 10.0124 49.6065C10.1466 49.7441 10.3083 49.8516 10.4869 49.9221C10.6655 49.9925 10.8569 50.0243 11.0487 50.0153C11.2374 50.0222 11.4254 49.9885 11.6001 49.9166C11.7747 49.8446 11.932 49.736 12.0613 49.598C12.1906 49.4601 12.2889 49.296 12.3497 49.1167C12.4104 48.9375 12.4322 48.7474 12.4135 48.559V44.4927H14.2379L14.2518 48.559Z" fill="white"/>
<path d="M21.5913 45.9489H17.9053V47.2609H21.2339V48.7172H17.9053V50.0339H21.6934V51.4901H16.0856V44.5112H21.5913V45.9489Z" fill="white"/>
<path d="M28.9261 45.1999L28.2391 46.6515C27.5528 46.2386 26.784 45.9828 25.9876 45.9024C25.5512 45.9024 25.2634 46.0606 25.2634 46.3677C25.2634 47.5262 28.9354 46.8655 28.9354 49.3825C28.9354 50.8109 27.682 51.5367 26.1268 51.5367C24.9604 51.5333 23.8284 51.1404 22.9097 50.42L23.62 48.9917C24.3267 49.6066 25.2087 49.9826 26.1408 50.0664C26.6793 50.0664 27.0135 49.8664 27.0135 49.4942C27.0135 48.3078 23.3414 49.0289 23.3414 46.5491C23.3414 45.2417 24.4463 44.4136 26.1268 44.4136C27.1143 44.413 28.0828 44.6851 28.9261 45.1999Z" fill="white"/>
<path d="M35.8153 46.0001H33.7263V51.4901H31.9018V46.0001H29.8546V44.4927H35.8385L35.8153 46.0001Z" fill="white"/>
<path d="M38.9721 51.4901H37.1523V44.5112H38.9721V51.4901Z" fill="white"/>
<path d="M48.0292 47.9868C48.0292 50.0339 46.4137 51.5739 44.255 51.5739C42.0963 51.5739 40.4762 50.0339 40.4762 47.9868C40.4762 45.9397 42.0917 44.4415 44.255 44.4415C46.4183 44.4415 48.0292 45.9629 48.0292 47.9868ZM42.3516 47.9868C42.3404 48.5097 42.5364 49.0157 42.8966 49.3941C43.2568 49.7726 43.7519 49.9926 44.2736 50.006C44.6729 50.0227 45.0682 49.9194 45.4086 49.7093C45.749 49.4993 46.019 49.1921 46.1839 48.8271C46.3488 48.4622 46.4012 48.0562 46.3343 47.6613C46.2673 47.2663 46.0841 46.9004 45.8082 46.6105C45.5323 46.3206 45.1763 46.12 44.7858 46.0344C44.3953 45.9487 43.9881 45.982 43.6167 46.1299C43.2452 46.2778 42.9262 46.5336 42.7008 46.8645C42.4754 47.1954 42.3538 47.5862 42.3516 47.9868ZM45.9355 42.7573L44.631 43.9158H43.2847L44.3525 42.199L45.9355 42.7573Z" fill="white"/>
<path d="M55.9954 51.4901H54.4031L51.237 47.3028V51.4901H49.5333V44.5112H51.1349L54.3056 48.7265V44.5112H55.9954V51.4901Z" fill="white"/>
<path d="M41.4603 12.804C41.1122 13.0366 40.7361 13.2692 40.3416 13.4786C38.2767 14.5543 36.0575 15.3014 33.7634 15.6932C32.1661 15.9841 30.549 16.1521 28.9261 16.1957C28.6864 16.2053 28.4597 16.3076 28.2935 16.481C28.1273 16.6545 28.0346 16.8857 28.0348 17.1262V21.3135C28.0348 26.2778 28.0348 33.6568 28.0348 37.7046C28.0457 37.8933 28.1135 38.0742 28.2295 38.2232C28.3454 38.3723 28.5039 38.4824 28.6838 38.539C28.8638 38.5956 29.0566 38.5959 29.2367 38.5399C29.4169 38.4839 29.5757 38.3743 29.6921 38.2257L34.5155 31.2468C39.4966 29.9673 42.9319 27.2595 42.9319 24.1283L44.3803 12.5481C44.3955 12.3717 44.3602 12.1946 44.2785 12.0376C44.1967 11.8807 44.072 11.7504 43.919 11.6619C43.7659 11.5735 43.5909 11.5307 43.4144 11.5385C43.238 11.5463 43.0674 11.6044 42.9227 11.706L41.4603 12.804Z" fill="white"/>
<path d="M26.605 17.0377C26.6058 16.804 26.5189 16.5786 26.3615 16.4062C26.2041 16.2338 25.9878 16.127 25.7554 16.1072C17.7846 15.5582 11.5732 12.1618 11.1322 7.97913H11.0719L13.1423 24.3888C13.3884 28.1992 18.7131 31.3211 25.6208 31.9167C25.7477 31.9249 25.875 31.907 25.9947 31.864C26.1144 31.8209 26.224 31.7537 26.3167 31.6665C26.4094 31.5792 26.4833 31.4738 26.5336 31.3568C26.584 31.2398 26.6099 31.1136 26.6096 30.9861L26.605 17.0377Z" fill="white"/>
<path d="M30.667 0.986327C30.6675 0.749669 30.578 0.521707 30.4167 0.34884C30.2554 0.175973 30.0345 0.0711925 29.7989 0.0558103C29.2171 0.0216913 28.6166 0.00463867 27.9977 0.00463867C18.6574 0.00463867 11.0858 3.34054 11.0858 7.44877C11.0858 10.4171 15.0271 12.976 20.7279 14.1764C23.0935 13.5104 25.5405 13.1799 27.9977 13.1947C28.4341 13.1947 28.8612 13.1947 29.2882 13.2273C29.5307 13.2349 29.7664 13.1472 29.9452 12.9829C30.1239 12.8186 30.2313 12.5907 30.2446 12.348L30.667 0.986327Z" fill="white"/>
</g>
<defs>
<clipPath id="clip0_151_221">
<rect width="56" height="61" fill="white"/>
</clipPath>
</defs>
</svg>
