<svg width="23" height="23" viewBox="0 0 23 23" fill="none" xmlns="http://www.w3.org/2000/svg">
<path d="M18.285 10.235C14.605 8.05 8.4525 7.82 4.945 8.9125C4.37 9.085 3.795 8.74 3.6225 8.2225C3.45 7.6475 3.795 7.0725 4.3125 6.9C8.395 5.6925 15.1225 5.9225 19.3775 8.4525C19.895 8.74 20.0675 9.43 19.78 9.9475C19.4925 10.35 18.8025 10.5225 18.285 10.235ZM18.17 13.455C17.8825 13.8575 17.365 14.03 16.9625 13.7425C13.8575 11.845 9.1425 11.27 5.52 12.42C5.06 12.535 4.5425 12.305 4.4275 11.845C4.3125 11.385 4.5425 10.8675 5.0025 10.7525C9.2 9.4875 14.375 10.12 17.94 12.305C18.285 12.4775 18.4575 13.0525 18.17 13.455ZM16.79 16.6175C16.56 16.9625 16.1575 17.0775 15.8125 16.8475C13.11 15.18 9.7175 14.835 5.6925 15.755C5.29 15.87 4.945 15.5825 4.83 15.2375C4.715 14.835 5.0025 14.49 5.3475 14.375C9.7175 13.3975 13.5125 13.8 16.5025 15.64C16.905 15.8125 16.9625 16.2725 16.79 16.6175ZM11.5 0C9.9898 0 8.49438 0.297456 7.09914 0.875385C5.7039 1.45331 4.43615 2.3004 3.36827 3.36827C1.2116 5.52494 0 8.45001 0 11.5C0 14.55 1.2116 17.4751 3.36827 19.6317C4.43615 20.6996 5.7039 21.5467 7.09914 22.1246C8.49438 22.7025 9.9898 23 11.5 23C14.55 23 17.4751 21.7884 19.6317 19.6317C21.7884 17.4751 23 14.55 23 11.5C23 9.9898 22.7025 8.49438 22.1246 7.09914C21.5467 5.7039 20.6996 4.43615 19.6317 3.36827C18.5639 2.3004 17.2961 1.45331 15.9009 0.875385C14.5056 0.297456 13.0102 0 11.5 0Z" fill="white"/>
</svg>
