<svg width="102" height="43" viewBox="0 0 102 43" fill="none" xmlns="http://www.w3.org/2000/svg">
<path d="M98.2086 0.662354H72.4733V9.09135H98.2086V0.662354Z" fill="#F4CF30"/>
<path d="M98.2086 9.09134H72.4733V13.3058H98.2086V9.09134Z" fill="#0E33A8"/>
<path d="M98.2086 13.3058H72.4733V17.5203H98.2086V13.3058Z" fill="#CE0D0D"/>
<path d="M7.65312 0.811188H10.7113V17.3537H7.65312V10.4266H4.01177V17.3537H0.953613V0.811188H4.01177V7.56759H7.65312V0.811188Z" fill="#DBDBDB"/>
<path d="M18.8893 17.6097C18.4874 17.6162 18.0884 17.5407 17.7167 17.3879C17.3449 17.235 17.0083 17.008 16.7272 16.7207C16.4388 16.4446 16.2104 16.112 16.0562 15.7437C15.902 15.3754 15.8254 14.9793 15.8311 14.58V3.5991C15.8315 2.78814 16.1538 2.01049 16.7272 1.43705C17.3007 0.863615 18.0783 0.541304 18.8893 0.540944H22.8293C23.2369 0.531253 23.6422 0.605123 24.0201 0.758003C24.3981 0.910883 24.7407 1.13953 25.0269 1.42987C25.3154 1.71157 25.5431 2.04938 25.696 2.42246C25.8489 2.79554 25.9237 3.19599 25.9159 3.5991V14.58C25.9218 14.9787 25.846 15.3742 25.6931 15.7424C25.5402 16.1106 25.3135 16.4435 25.0269 16.7207C24.7408 17.0111 24.3981 17.2398 24.0202 17.3927C23.6422 17.5456 23.2369 17.6195 22.8293 17.6098L18.8893 17.6097ZM19.7712 14.8218H21.9759C22.0965 14.8264 22.2166 14.8038 22.3274 14.7558C22.4382 14.7077 22.5368 14.6355 22.616 14.5444C22.7763 14.3619 22.8625 14.126 22.8578 13.8831V4.26763C22.8633 4.02671 22.7769 3.79272 22.616 3.61333C22.5356 3.52406 22.4367 3.45357 22.326 3.40686C22.2154 3.36016 22.0959 3.33837 21.9759 3.34307H19.7712C19.6524 3.33975 19.5343 3.36219 19.4251 3.40885C19.3158 3.4555 19.2179 3.52526 19.1382 3.61333C18.9733 3.79074 18.884 4.02545 18.8893 4.26763V13.8831C18.8848 14.1272 18.9738 14.3638 19.1382 14.5444C19.2168 14.6343 19.3143 14.7058 19.4237 14.7537C19.5331 14.8017 19.6517 14.8249 19.7712 14.8218Z" fill="#DBDBDB"/>
<path d="M33.9373 17.6097C33.5386 17.6157 33.143 17.5398 32.7748 17.3869C32.4066 17.234 32.0737 17.0073 31.7965 16.7207C31.508 16.439 31.2803 16.1013 31.1274 15.7282C30.9745 15.3551 30.8997 14.9547 30.9075 14.5516V0.811188H33.9657V13.8262C33.9575 14.0782 34.0437 14.3242 34.2075 14.5159C34.2822 14.605 34.3759 14.6762 34.4818 14.7242C34.5876 14.7723 34.7029 14.7959 34.8191 14.7934H36.7394C36.8552 14.7981 36.9706 14.7761 37.0766 14.7293C37.1826 14.6824 37.2765 14.6119 37.351 14.5231C37.5085 14.3259 37.5893 14.0783 37.5786 13.8262V0.811188H40.6368V14.5516C40.6462 14.9553 40.5728 15.3567 40.4211 15.731C40.2694 16.1053 40.0427 16.4446 39.7549 16.7279C39.4761 17.0138 39.1417 17.2395 38.7723 17.3912C38.4029 17.5429 38.0063 17.6173 37.6071 17.6097L33.9373 17.6097Z" fill="#DBDBDB"/>
<path d="M48.26 17.6098C47.8607 17.6155 47.4646 17.5388 47.0963 17.3847C46.728 17.2305 46.3954 17.0021 46.1192 16.7136C45.8319 16.4326 45.6049 16.0959 45.4521 15.7242C45.2992 15.3524 45.2238 14.9535 45.2302 14.5516V12.2331H48.26V13.8262C48.2537 14.0733 48.3343 14.3149 48.4875 14.5089C48.5575 14.6002 48.6482 14.6736 48.752 14.723C48.8559 14.7725 48.97 14.7966 49.085 14.7934H50.7065C50.8265 14.7963 50.9457 14.7722 51.0552 14.723C51.1648 14.6738 51.2619 14.6006 51.3394 14.5089C51.5049 14.3205 51.5937 14.0769 51.5884 13.8262V11.6214C51.5893 11.4542 51.5398 11.2906 51.4461 11.1521C51.3548 11.0126 51.2197 10.9075 51.0621 10.8534L47.0651 9.4025C46.5481 9.225 46.0952 8.89833 45.7636 8.46371C45.4516 8.0346 45.2892 7.51485 45.3014 6.98442V3.57066C45.3017 2.7597 45.624 1.98205 46.1975 1.40861C46.7709 0.835174 47.5486 0.51286 48.3595 0.512499H51.5599C51.9592 0.506838 52.3553 0.583485 52.7236 0.737661C53.0919 0.891836 53.4245 1.12023 53.7006 1.40861C53.9879 1.68972 54.2149 2.0264 54.3677 2.39812C54.5205 2.76984 54.5961 3.1688 54.5896 3.57066V5.64737H51.5599V4.29609C51.567 4.0521 51.4891 3.81323 51.3394 3.62037C51.2701 3.53069 51.1804 3.45878 51.0777 3.41057C50.9751 3.36236 50.8625 3.33922 50.7492 3.34307H49.2272C49.1088 3.33951 48.9911 3.36258 48.8827 3.41057C48.7744 3.45857 48.6783 3.53026 48.6013 3.62037C48.4392 3.80753 48.353 4.04856 48.3595 4.29609V6.28745C48.3588 6.45581 48.4056 6.62097 48.4947 6.76387C48.535 6.8336 48.5893 6.89424 48.6541 6.94198C48.719 6.98973 48.793 7.02355 48.8716 7.04132L52.8685 8.49217C53.3882 8.67194 53.8434 9.00093 54.1771 9.43799C54.4913 9.86374 54.6563 10.3812 54.6465 10.9102V14.5516C54.6462 15.3626 54.3239 16.1402 53.7504 16.7136C53.177 17.2871 52.3993 17.6094 51.5884 17.6098L48.26 17.6098Z" fill="#DBDBDB"/>
<path d="M62.298 14.5516H67.2907V17.3537H59.2399V0.811188H67.1342V3.5991H62.298V7.73829H65.8256V10.2986H62.298L62.298 14.5516Z" fill="#DBDBDB"/>
<path d="M6.55059 36.8761C6.26979 36.8777 5.99187 36.8193 5.73542 36.7049C5.47896 36.5906 5.24988 36.4227 5.06346 36.2127C4.87705 36.0027 4.7376 35.7554 4.65444 35.4871C4.57128 35.2189 4.54632 34.9361 4.58122 34.6574L5.40387 27.9267C5.47782 27.3132 5.7805 26.7501 6.25145 26.35C6.69717 25.9313 7.2852 25.6974 7.89674 25.6956H10.0157C10.3023 25.688 10.587 25.7445 10.849 25.8609C11.1109 25.9774 11.3437 26.1508 11.5301 26.3686C11.7207 26.5764 11.8627 26.824 11.9457 27.0935C12.0287 27.363 12.0507 27.6476 12.01 27.9267L11.1998 34.6574C11.1038 35.2646 10.7981 35.819 10.3359 36.2243C9.87368 36.6296 9.28408 36.8602 8.66953 36.8761L6.55059 36.8761ZM7.06163 35.3803H8.50749C8.78851 35.3842 9.05964 35.2767 9.26158 35.0812C9.46746 34.8941 9.59445 34.6356 9.61681 34.3583L10.3771 28.2258C10.4004 28.097 10.3958 27.9647 10.3635 27.8378C10.3313 27.711 10.2721 27.5925 10.1902 27.4904C10.1085 27.3881 10.0039 27.3066 9.88475 27.2524C9.76562 27.1983 9.63537 27.1731 9.50463 27.1788H8.0837C7.94658 27.1794 7.81094 27.2072 7.68469 27.2607C7.55843 27.3142 7.44409 27.3923 7.34831 27.4904C7.14024 27.6818 7.0113 27.9442 6.98684 28.2258L6.21405 34.3583C6.19425 34.486 6.20179 34.6165 6.23617 34.7411C6.27055 34.8658 6.33098 34.9817 6.41348 35.0812C6.49117 35.1776 6.59009 35.2548 6.70252 35.3067C6.81495 35.3586 6.93785 35.3838 7.06163 35.3803Z" fill="#DBDBDB"/>
<path d="M12.7041 42.4726L12.9035 40.9644H13.4644C13.7574 40.9667 14.0404 40.8576 14.2559 40.6591C14.4718 40.4793 14.6084 40.2219 14.6361 39.9423L16.1941 27.3035H14.9227L15.0973 25.9075H16.3437L16.7799 22.6667C16.8628 22.0394 17.1695 21.4631 17.6436 21.0439C18.1177 20.6248 18.7273 20.3911 19.3601 20.3858H20.8433L20.6563 21.894H19.5844C19.2955 21.8973 19.0177 22.0052 18.8022 22.1977C18.5868 22.3902 18.4485 22.6543 18.4128 22.941L18.0388 25.9075H19.9708L19.7963 27.3035H17.8768L16.2938 40.2041C16.2172 40.8309 15.9026 41.4043 15.4151 41.8058C14.9349 42.2386 14.3103 42.4764 13.6639 42.4726H12.7041Z" fill="#DBDBDB"/>
<path d="M31.5667 20.9562H34.5679V37.4987H31.5667V33.0182L27.6266 26.6885V37.4987H24.6254V20.9562H26.9866L31.5667 28.3811V20.9562Z" fill="#DBDBDB"/>
<path d="M46.7144 37.4987L46.0743 34.2699H42.4045L41.7644 37.4987H38.6636L42.7743 20.8993H45.7756L49.8863 37.4987H46.7144ZM42.9166 31.7664H45.548L44.2394 25.2092L42.9166 31.7664Z" fill="#DBDBDB"/>
<path d="M60.0983 37.4987L57.8935 31.4393H56.9832V37.4987H53.9819V20.9562H59.5577C59.9602 20.9532 60.3592 21.0302 60.7316 21.1828C61.104 21.3354 61.4424 21.5606 61.7269 21.8452C62.0115 22.1297 62.2367 22.4681 62.3893 22.8405C62.5419 23.2129 62.6189 23.6119 62.6159 24.0144V28.4096C62.6144 28.9646 62.454 29.5075 62.1536 29.9742C61.8549 30.4586 61.4295 30.8521 60.9233 31.1122L63.512 37.4987L60.0983 37.4987ZM56.9832 23.4596V28.9928H58.7043C58.8225 28.9944 58.9396 28.9704 59.0476 28.9225C59.1556 28.8747 59.252 28.804 59.3302 28.7153C59.4984 28.5367 59.5903 28.2994 59.5862 28.054V24.3842C59.5886 24.2637 59.5673 24.1438 59.5233 24.0315C59.4794 23.9193 59.4138 23.8168 59.3302 23.7299C59.2509 23.6431 59.1542 23.5741 59.0463 23.5275C58.9384 23.4809 58.8218 23.4578 58.7043 23.4596L56.9832 23.4596Z" fill="#DBDBDB"/>
<path d="M67.5507 37.4987V20.9562H70.6088V37.4987H67.5507Z" fill="#DBDBDB"/>
<path d="M82.8406 20.9562H85.8419V37.4987H82.8406V33.0182L78.9006 26.6885V37.4987H75.8993V20.9562H78.2605L82.8406 28.3811L82.8406 20.9562Z" fill="#DBDBDB"/>
<path d="M94.0198 37.7547C93.6179 37.7612 93.2189 37.6857 92.8472 37.5329C92.4755 37.38 92.1388 37.153 91.8577 36.8657C91.5693 36.5896 91.3409 36.257 91.1867 35.8887C91.0325 35.5204 90.9559 35.1243 90.9616 34.725V23.7441C90.962 22.9331 91.2843 22.1555 91.8577 21.582C92.4311 21.0086 93.2088 20.6863 94.0198 20.6859H97.9598C98.3674 20.6762 98.7727 20.7501 99.1506 20.903C99.5286 21.0559 99.8712 21.2845 100.157 21.5749C100.446 21.8566 100.674 22.1944 100.826 22.5675C100.979 22.9405 101.054 23.341 101.046 23.7441V34.725C101.052 35.1236 100.976 35.5192 100.824 35.8874C100.671 36.2556 100.444 36.5885 100.157 36.8657C99.8713 37.1561 99.5286 37.3848 99.1507 37.5377C98.7727 37.6906 98.3674 37.7645 97.9598 37.7547H94.0198ZM94.9017 34.9668H97.1064C97.227 34.9713 97.3471 34.9488 97.4579 34.9008C97.5687 34.8527 97.6673 34.7805 97.7465 34.6894C97.9068 34.5069 97.993 34.271 97.9883 34.0281V24.4126C97.9938 24.1717 97.9074 23.9377 97.7465 23.7583C97.6662 23.6691 97.5672 23.5986 97.4565 23.5519C97.3459 23.5052 97.2264 23.4834 97.1064 23.4881H94.9017C94.7829 23.4847 94.6648 23.5072 94.5556 23.5538C94.4463 23.6005 94.3484 23.6703 94.2687 23.7583C94.1038 23.9357 94.0145 24.1704 94.0198 24.4126V34.0281C94.0153 34.2722 94.1043 34.5088 94.2687 34.6894C94.3473 34.7793 94.4448 34.8508 94.5542 34.8987C94.6636 34.9467 94.7822 34.9699 94.9017 34.9668Z" fill="#DBDBDB"/>
<path d="M81.9601 20.7105C81.4254 20.6938 80.8981 20.581 80.4034 20.3774C79.7008 20.1251 79.4099 20.0207 78.6624 20.5895L77.3895 18.9164C79.0456 17.6566 80.2901 18.1031 81.1134 18.3986C81.8001 18.645 82.145 18.769 82.9299 18.2366L84.1099 19.9763C83.2867 20.5346 82.5712 20.7105 81.9601 20.7105Z" fill="#DBDBDB"/>
</svg>
