<svg width="102" height="50" viewBox="0 0 102 50" fill="none" xmlns="http://www.w3.org/2000/svg">
<g clip-path="url(#clip0_4047_776)">
<path d="M98.2086 7.66234H72.4733V16.0913H98.2086V7.66234Z" fill="#F4CF30"/>
<path d="M98.2086 16.0913H72.4733V20.3058H98.2086V16.0913Z" fill="#0E33A8"/>
<path d="M98.2086 20.3058H72.4733V24.5203H98.2086V20.3058Z" fill="#CE0D0D"/>
<path d="M7.65312 7.81119H10.7113V24.3537H7.65312V17.4266H4.01177V24.3537H0.953613V7.81119H4.01177V14.5676H7.65312V7.81119Z" fill="#DBDBDB"/>
<path d="M18.8893 24.6097C18.4874 24.6162 18.0884 24.5407 17.7167 24.3879C17.3449 24.235 17.0083 24.008 16.7272 23.7207C16.4388 23.4446 16.2104 23.112 16.0562 22.7437C15.902 22.3754 15.8254 21.9793 15.8311 21.58V10.5991C15.8315 9.78814 16.1538 9.01049 16.7272 8.43705C17.3007 7.86361 18.0783 7.5413 18.8893 7.54094H22.8293C23.2369 7.53125 23.6422 7.60512 24.0201 7.758C24.3981 7.91088 24.7407 8.13953 25.0269 8.42987C25.3154 8.71157 25.5431 9.04938 25.696 9.42246C25.8489 9.79554 25.9237 10.196 25.9159 10.5991V21.58C25.9218 21.9786 25.846 22.3742 25.6931 22.7424C25.5402 23.1106 25.3135 23.4435 25.0269 23.7207C24.7408 24.0111 24.3981 24.2398 24.0202 24.3927C23.6422 24.5456 23.2369 24.6195 22.8293 24.6097L18.8893 24.6097ZM19.7712 21.8218H21.9759C22.0965 21.8263 22.2166 21.8038 22.3274 21.7558C22.4382 21.7077 22.5368 21.6355 22.616 21.5444C22.7763 21.3619 22.8625 21.126 22.8578 20.8831V11.2676C22.8633 11.0267 22.7769 10.7927 22.616 10.6133C22.5356 10.5241 22.4367 10.4536 22.326 10.4069C22.2154 10.3602 22.0959 10.3384 21.9759 10.3431H19.7712C19.6524 10.3398 19.5343 10.3622 19.4251 10.4088C19.3158 10.4555 19.2179 10.5253 19.1382 10.6133C18.9733 10.7907 18.884 11.0254 18.8893 11.2676V20.8831C18.8848 21.1272 18.9738 21.3638 19.1382 21.5444C19.2168 21.6343 19.3143 21.7058 19.4237 21.7537C19.5331 21.8017 19.6517 21.8249 19.7712 21.8218Z" fill="#DBDBDB"/>
<path d="M33.9373 24.6097C33.5386 24.6157 33.143 24.5398 32.7748 24.3869C32.4066 24.234 32.0737 24.0073 31.7965 23.7207C31.508 23.439 31.2803 23.1013 31.1274 22.7282C30.9745 22.3551 30.8997 21.9547 30.9075 21.5516V7.81119H33.9657V20.8262C33.9575 21.0782 34.0437 21.3242 34.2075 21.5159C34.2822 21.605 34.3759 21.6762 34.4818 21.7243C34.5876 21.7723 34.7029 21.7959 34.8191 21.7934H36.7394C36.8552 21.7981 36.9706 21.7762 37.0766 21.7293C37.1826 21.6825 37.2765 21.6119 37.351 21.5231C37.5085 21.3259 37.5893 21.0783 37.5786 20.8262V7.81119H40.6368V21.5516C40.6462 21.9553 40.5728 22.3567 40.4211 22.731C40.2694 23.1053 40.0427 23.4446 39.7549 23.7279C39.4761 24.0138 39.1417 24.2395 38.7723 24.3912C38.4029 24.5429 38.0063 24.6173 37.6071 24.6098L33.9373 24.6097Z" fill="#DBDBDB"/>
<path d="M48.26 24.6097C47.8607 24.6154 47.4646 24.5388 47.0963 24.3846C46.728 24.2305 46.3954 24.002 46.1192 23.7136C45.8319 23.4326 45.6049 23.0959 45.4521 22.7242C45.2992 22.3524 45.2238 21.9535 45.2302 21.5516V19.2331H48.26V20.8262C48.2537 21.0733 48.3343 21.3149 48.4875 21.5089C48.5575 21.6002 48.6482 21.6736 48.752 21.723C48.8559 21.7725 48.97 21.7966 49.085 21.7934H50.7065C50.8265 21.7963 50.9457 21.7722 51.0552 21.723C51.1648 21.6737 51.2619 21.6006 51.3394 21.5089C51.5049 21.3205 51.5937 21.0769 51.5884 20.8262V18.6214C51.5893 18.4542 51.5398 18.2906 51.4461 18.152C51.3548 18.0126 51.2197 17.9075 51.0621 17.8533L47.0651 16.4025C46.5481 16.225 46.0952 15.8983 45.7636 15.4637C45.4516 15.0346 45.2892 14.5148 45.3014 13.9844V10.5706C45.3017 9.75968 45.624 8.98204 46.1975 8.4086C46.7709 7.83516 47.5486 7.51285 48.3595 7.51249H51.5599C51.9592 7.50683 52.3553 7.58347 52.7236 7.73765C53.0919 7.89182 53.4245 8.12022 53.7006 8.4086C53.9879 8.68971 54.2149 9.02639 54.3677 9.39811C54.5205 9.76983 54.5961 10.1688 54.5896 10.5706V12.6474H51.5599V11.2961C51.567 11.0521 51.4891 10.8132 51.3394 10.6204C51.2701 10.5307 51.1804 10.4588 51.0777 10.4106C50.9751 10.3623 50.8625 10.3392 50.7492 10.3431H49.2272C49.1088 10.3395 48.9911 10.3626 48.8827 10.4106C48.7744 10.4586 48.6783 10.5302 48.6013 10.6204C48.4392 10.8075 48.353 11.0486 48.3595 11.2961V13.2874C48.3588 13.4558 48.4056 13.621 48.4947 13.7639C48.535 13.8336 48.5893 13.8942 48.6541 13.942C48.719 13.9897 48.793 14.0235 48.8716 14.0413L52.8685 15.4922C53.3882 15.6719 53.8434 16.0009 54.1771 16.438C54.4913 16.8637 54.6563 17.3812 54.6465 17.9102V21.5516C54.6462 22.3626 54.3239 23.1402 53.7504 23.7136C53.177 24.2871 52.3993 24.6094 51.5884 24.6098L48.26 24.6097Z" fill="#DBDBDB"/>
<path d="M62.298 21.5516H67.2907V24.3537H59.2399V7.81119H67.1342V10.5991H62.298V14.7383H65.8256V17.2986H62.298L62.298 21.5516Z" fill="#DBDBDB"/>
<path d="M6.55059 43.8761C6.26979 43.8777 5.99187 43.8193 5.73542 43.705C5.47896 43.5906 5.24988 43.4228 5.06346 43.2127C4.87705 43.0027 4.7376 42.7554 4.65444 42.4871C4.57128 42.2189 4.54632 41.9361 4.58122 41.6574L5.40387 34.9267C5.47782 34.3132 5.7805 33.7501 6.25145 33.35C6.69717 32.9313 7.2852 32.6974 7.89674 32.6956H10.0157C10.3023 32.688 10.587 32.7445 10.849 32.8609C11.1109 32.9774 11.3437 33.1508 11.5301 33.3686C11.7207 33.5764 11.8627 33.8241 11.9457 34.0936C12.0287 34.363 12.0507 34.6476 12.01 34.9267L11.1998 41.6574C11.1038 42.2646 10.7981 42.819 10.3359 43.2243C9.87368 43.6297 9.28408 43.8602 8.66953 43.8761L6.55059 43.8761ZM7.06163 42.3804H8.50749C8.78851 42.3842 9.05964 42.2767 9.26158 42.0812C9.46746 41.8941 9.59445 41.6356 9.61681 41.3583L10.3771 35.2258C10.4004 35.097 10.3958 34.9647 10.3635 34.8378C10.3313 34.711 10.2721 34.5925 10.1902 34.4904C10.1085 34.3882 10.0039 34.3066 9.88475 34.2525C9.76562 34.1983 9.63537 34.1731 9.50463 34.1788H8.0837C7.94658 34.1794 7.81094 34.2072 7.68469 34.2607C7.55843 34.3142 7.44409 34.3923 7.34831 34.4904C7.14024 34.6819 7.0113 34.9442 6.98684 35.2258L6.21405 41.3583C6.19425 41.486 6.20179 41.6165 6.23617 41.7412C6.27055 41.8658 6.33098 41.9817 6.41348 42.0812C6.49117 42.1776 6.59009 42.2548 6.70252 42.3067C6.81495 42.3586 6.93785 42.3838 7.06163 42.3804Z" fill="#DBDBDB"/>
<path d="M12.7041 49.4726L12.9035 47.9644H13.4644C13.7574 47.9667 14.0404 47.8576 14.2559 47.6591C14.4718 47.4793 14.6084 47.2219 14.6361 46.9423L16.1941 34.3035H14.9227L15.0973 32.9075H16.3437L16.7799 29.6667C16.8628 29.0394 17.1695 28.4631 17.6436 28.0439C18.1177 27.6248 18.7273 27.3911 19.3601 27.3858H20.8433L20.6563 28.894H19.5844C19.2955 28.8973 19.0177 29.0052 18.8022 29.1977C18.5868 29.3902 18.4485 29.6543 18.4128 29.941L18.0388 32.9075H19.9708L19.7963 34.3035H17.8768L16.2938 47.2041C16.2172 47.8309 15.9026 48.4043 15.4151 48.8058C14.9349 49.2386 14.3103 49.4764 13.6639 49.4726H12.7041Z" fill="#DBDBDB"/>
<path d="M31.5667 27.9562H34.5679V44.4987H31.5667V40.0182L27.6266 33.6885V44.4987H24.6254V27.9562H26.9866L31.5667 35.3811V27.9562Z" fill="#DBDBDB"/>
<path d="M46.7144 44.4987L46.0743 41.2699H42.4045L41.7644 44.4987H38.6636L42.7743 27.8993H45.7756L49.8863 44.4987H46.7144ZM42.9166 38.7664H45.548L44.2394 32.2092L42.9166 38.7664Z" fill="#DBDBDB"/>
<path d="M60.0983 44.4987L57.8935 38.4393H56.9832V44.4987H53.9819V27.9562H59.5577C59.9602 27.9532 60.3592 28.0302 60.7316 28.1828C61.104 28.3354 61.4424 28.5606 61.7269 28.8452C62.0115 29.1297 62.2367 29.4681 62.3893 29.8405C62.5419 30.2129 62.6189 30.6119 62.6159 31.0144V35.4096C62.6144 35.9646 62.454 36.5075 62.1536 36.9742C61.8549 37.4586 61.4295 37.8521 60.9233 38.1121L63.512 44.4987L60.0983 44.4987ZM56.9832 30.4596V35.9928H58.7043C58.8225 35.9944 58.9396 35.9704 59.0476 35.9225C59.1556 35.8746 59.252 35.804 59.3302 35.7153C59.4984 35.5367 59.5903 35.2994 59.5862 35.054V31.3842C59.5886 31.2637 59.5673 31.1438 59.5233 31.0315C59.4794 30.9193 59.4138 30.8168 59.3302 30.7299C59.2509 30.6431 59.1542 30.5741 59.0463 30.5275C58.9384 30.4809 58.8218 30.4578 58.7043 30.4596L56.9832 30.4596Z" fill="#DBDBDB"/>
<path d="M67.5507 44.4987V27.9562H70.6088V44.4987H67.5507Z" fill="#DBDBDB"/>
<path d="M82.8406 27.9562H85.8419V44.4987H82.8406V40.0182L78.9006 33.6885V44.4987H75.8993V27.9562H78.2605L82.8406 35.3811L82.8406 27.9562Z" fill="#DBDBDB"/>
<path d="M94.0198 44.7548C93.6179 44.7612 93.2189 44.6857 92.8472 44.5329C92.4755 44.38 92.1388 44.153 91.8577 43.8657C91.5693 43.5896 91.3409 43.257 91.1867 42.8887C91.0325 42.5204 90.9559 42.1243 90.9616 41.725V30.7441C90.962 29.9331 91.2843 29.1555 91.8577 28.5821C92.4311 28.0086 93.2088 27.6863 94.0198 27.6859H97.9598C98.3674 27.6763 98.7727 27.7501 99.1506 27.903C99.5286 28.0559 99.8712 28.2845 100.157 28.5749C100.446 28.8566 100.674 29.1944 100.826 29.5675C100.979 29.9405 101.054 30.341 101.046 30.7441V41.725C101.052 42.1236 100.976 42.5192 100.824 42.8874C100.671 43.2556 100.444 43.5885 100.157 43.8657C99.8713 44.1561 99.5286 44.3848 99.1507 44.5377C98.7727 44.6906 98.3674 44.7645 97.9598 44.7548H94.0198ZM94.9017 41.9668H97.1064C97.227 41.9714 97.3471 41.9488 97.4579 41.9008C97.5687 41.8527 97.6673 41.7805 97.7465 41.6894C97.9068 41.5069 97.993 41.271 97.9883 41.0281V31.4126C97.9938 31.1717 97.9074 30.9377 97.7465 30.7583C97.6662 30.6691 97.5672 30.5986 97.4565 30.5519C97.3459 30.5052 97.2264 30.4834 97.1064 30.4881H94.9017C94.7829 30.4848 94.6648 30.5072 94.5556 30.5538C94.4463 30.6005 94.3484 30.6703 94.2687 30.7583C94.1038 30.9357 94.0145 31.1705 94.0198 31.4126V41.0281C94.0153 41.2722 94.1043 41.5088 94.2687 41.6894C94.3473 41.7793 94.4448 41.8508 94.5542 41.8987C94.6636 41.9467 94.7822 41.9699 94.9017 41.9668Z" fill="#DBDBDB"/>
<path d="M81.9601 27.7105C81.4254 27.6938 80.8981 27.581 80.4034 27.3774C79.7008 27.1252 79.4099 27.0207 78.6624 27.5896L77.3895 25.9164C79.0456 24.6566 80.2901 25.1031 81.1134 25.3986C81.8001 25.645 82.145 25.769 82.9299 25.2366L84.1099 26.9763C83.2867 27.5346 82.5712 27.7105 81.9601 27.7105Z" fill="#DBDBDB"/>
<path d="M15.9953 4.72508C15.9117 4.72694 15.8285 4.71146 15.7512 4.6796C15.6738 4.64774 15.6039 4.60019 15.5458 4.53996C15.4867 4.4812 15.4401 4.41108 15.4088 4.33382C15.3775 4.25656 15.3622 4.17376 15.3638 4.09043V1.63625C15.3619 1.55172 15.377 1.46766 15.4083 1.38909C15.4395 1.31053 15.4863 1.23907 15.5458 1.17897C15.6036 1.1183 15.6734 1.07036 15.7509 1.03821C15.8283 1.00607 15.9115 0.990417 15.9953 0.992267H16.5676C16.6517 0.990121 16.7352 1.00563 16.8129 1.03779C16.8906 1.06995 16.9607 1.11804 17.0186 1.17897C17.0777 1.2393 17.1241 1.31084 17.155 1.38937C17.186 1.46791 17.201 1.55185 17.199 1.63625V2.17742H16.7667V1.72013C16.7688 1.63703 16.74 1.5561 16.6858 1.49307C16.6598 1.46266 16.6273 1.43849 16.5907 1.42236C16.5541 1.40622 16.5143 1.39853 16.4743 1.39985H16.0979C16.0573 1.39877 16.017 1.40671 15.9799 1.42311C15.9428 1.4395 15.9098 1.46393 15.8833 1.49465C15.8278 1.5565 15.7978 1.63706 15.7993 1.72013V4.00024C15.7979 4.08376 15.8279 4.16476 15.8833 4.2273C15.9095 4.25843 15.9425 4.28326 15.9796 4.29996C16.0167 4.31667 16.0572 4.32482 16.0979 4.32381H16.4743C16.5144 4.32506 16.5543 4.31716 16.591 4.30071C16.6276 4.28426 16.6601 4.2597 16.6858 4.22888C16.7399 4.16516 16.7687 4.08379 16.7667 4.00024V3.56162H17.199V4.09043C17.2009 4.1739 17.1859 4.25691 17.1549 4.33443C17.1239 4.41196 17.0776 4.48241 17.0186 4.54153C16.9602 4.60161 16.89 4.64893 16.8123 4.68052C16.7347 4.71211 16.6514 4.72728 16.5676 4.72508H15.9953Z" fill="white"/>
<path d="M19.4784 4.72508C19.3949 4.72607 19.3121 4.7103 19.2348 4.67872C19.1575 4.64714 19.0874 4.60038 19.0285 4.5412C18.9696 4.48203 18.9232 4.41165 18.892 4.33422C18.8608 4.2568 18.8455 4.1739 18.8469 4.09043V1.05761H19.2825V4.00642C19.2802 4.08993 19.3109 4.17097 19.3679 4.23203C19.3948 4.2617 19.4278 4.28524 19.4645 4.30108C19.5013 4.31691 19.541 4.32466 19.5811 4.32381H20.0072C20.0468 4.32486 20.0861 4.31718 20.1224 4.30132C20.1587 4.28545 20.191 4.2618 20.2172 4.23203C20.2724 4.17011 20.3019 4.08939 20.2996 4.00642V1.05761H20.7414V4.09043C20.7434 4.17407 20.7285 4.25726 20.6975 4.33498C20.6666 4.4127 20.6202 4.48334 20.5612 4.54264C20.5022 4.60195 20.4318 4.64869 20.3542 4.68004C20.2766 4.7114 20.1935 4.72672 20.1099 4.72508H19.4784Z" fill="white"/>
<path d="M23.008 4.28016H24.1465V4.67525H22.5756V1.05761H24.1153V1.45271H23.008V2.6627H23.8416V3.03912H23.008V4.28016Z" fill="white"/>
<path d="M26.236 4.72508C26.1542 4.7265 26.0731 4.71075 25.9978 4.67887C25.9225 4.64698 25.8548 4.59966 25.7989 4.53996C25.7406 4.48075 25.6948 4.41048 25.664 4.33328C25.6333 4.25608 25.6183 4.17351 25.62 4.09043V3.60514H26.0524V4.00642C26.0505 4.08828 26.0788 4.168 26.1317 4.23046C26.1559 4.26025 26.1865 4.28414 26.2212 4.30032C26.256 4.3165 26.294 4.32453 26.3323 4.32381H26.715C26.7541 4.32415 26.7929 4.31597 26.8286 4.29986C26.8643 4.28374 26.8961 4.26006 26.9218 4.23046C26.9783 4.16971 27.009 4.08937 27.0074 4.00642V3.42173C27.0074 3.36357 26.9901 3.30673 26.9577 3.25843C26.9252 3.20822 26.8786 3.1687 26.8238 3.14484L26.0151 2.83994C25.9031 2.79765 25.8062 2.72295 25.7368 2.62536C25.668 2.53043 25.6315 2.41598 25.6325 2.29877V1.62994C25.631 1.54627 25.6465 1.46318 25.6781 1.38567C25.7096 1.30816 25.7566 1.23784 25.816 1.17897C25.8727 1.11899 25.9413 1.07144 26.0173 1.0393C26.0933 1.00717 26.1751 0.99115 26.2577 0.992267H26.8051C26.8877 0.990757 26.9697 1.00659 27.0458 1.03875C27.1219 1.07091 27.1904 1.11868 27.2469 1.17897C27.3055 1.23832 27.3517 1.30879 27.3827 1.38623C27.4136 1.46368 27.4288 1.54654 27.4273 1.62994V2.09656H26.9949V1.71395C26.9964 1.63115 26.967 1.55074 26.9124 1.48847C26.8878 1.45839 26.8567 1.43423 26.8214 1.4178C26.7862 1.40137 26.7477 1.39308 26.7088 1.39354H26.3572C26.3179 1.39327 26.279 1.40163 26.2432 1.41803C26.2075 1.43443 26.1758 1.45848 26.1504 1.48847C26.0941 1.54991 26.0635 1.63062 26.0649 1.71395V2.22409C26.0651 2.28272 26.0823 2.34002 26.1146 2.38897C26.1465 2.43982 26.1948 2.47824 26.2515 2.49783L27.0602 2.80891C27.1716 2.85092 27.2684 2.92442 27.3387 3.02046C27.4076 3.11412 27.4441 3.22765 27.4428 3.3439V4.09043C27.4444 4.1739 27.4289 4.25681 27.3973 4.3341C27.3658 4.41139 27.3188 4.48143 27.2593 4.53996C27.2023 4.5995 27.1337 4.64667 27.0577 4.67852C26.9817 4.71037 26.9 4.72622 26.8176 4.72508H26.236Z" fill="white"/>
<path d="M30.7207 1.05761V1.45889H30.0022V4.67525H29.5636V1.45889H28.8419V1.05761H30.7207Z" fill="white"/>
<path d="M32.2627 4.67525V1.05761H32.695V4.67525H32.2627Z" fill="white"/>
<path d="M35.1517 4.72508C35.0677 4.72681 34.9843 4.71144 34.9065 4.67988C34.8287 4.64833 34.7581 4.60125 34.6991 4.54153C34.6394 4.48409 34.5921 4.41495 34.5602 4.33842C34.5284 4.2619 34.5126 4.17962 34.514 4.09674V1.63625C34.5136 1.55239 34.5298 1.46929 34.5617 1.39174C34.5936 1.31418 34.6405 1.24372 34.6998 1.18442C34.7591 1.12513 34.8296 1.07818 34.9072 1.04628C34.9847 1.01438 35.0678 0.998164 35.1517 0.998579H35.867C35.9512 0.996489 36.0348 1.01185 36.1127 1.04368C36.1907 1.07552 36.2611 1.12315 36.3197 1.18357C36.379 1.24285 36.4257 1.31351 36.457 1.39131C36.4882 1.4691 36.5035 1.55242 36.5017 1.63625V4.09674C36.5023 4.17994 36.4862 4.26243 36.4544 4.33933C36.4226 4.41624 36.3758 4.48601 36.3167 4.54456C36.2576 4.6031 36.1873 4.64923 36.1101 4.68023C36.0329 4.71123 35.9502 4.72648 35.867 4.72508H35.1517ZM35.2544 4.32999H35.7645C35.8058 4.33121 35.8468 4.32335 35.8847 4.30694C35.9225 4.29054 35.9563 4.266 35.9837 4.23506C36.0396 4.17467 36.0703 4.09507 36.0693 4.01273V1.71395C36.0704 1.63202 36.0397 1.55283 35.9837 1.49307C35.9561 1.46258 35.9222 1.43845 35.8843 1.42235C35.8465 1.40626 35.8056 1.39858 35.7645 1.39985H35.2544C35.2135 1.3989 35.1729 1.40673 35.1353 1.42281C35.0977 1.43889 35.064 1.46285 35.0365 1.49307C34.9797 1.55244 34.9484 1.63176 34.9495 1.71395V4.01273C34.9485 4.09532 34.9797 4.17505 35.0365 4.23506C35.0638 4.26573 35.0974 4.2901 35.135 4.30649C35.1726 4.32288 35.2133 4.33089 35.2544 4.32999ZM35.3165 0.821214L35.5653 -1.90735e-06H35.9916L35.6618 0.821214H35.3165Z" fill="white"/>
<path d="M39.8384 1.05761H40.2645V4.67525H39.8384V3.64248L38.756 1.90999V4.67525H38.3297V1.05761H38.6471L39.8384 2.97378L39.8384 1.05761Z" fill="white"/>
<path d="M45.3705 1.05761C45.4541 1.05427 45.5376 1.06784 45.6159 1.0975C45.6942 1.12716 45.7657 1.17231 45.8262 1.23024C45.8845 1.28801 45.9302 1.35722 45.9605 1.43353C45.9907 1.50983 46.0049 1.59157 46.002 1.6736V2.71241C46.0045 2.79439 45.9902 2.87602 45.9599 2.95226C45.9297 3.02851 45.8842 3.09777 45.8262 3.15576C45.7662 3.21456 45.6948 3.26048 45.6165 3.29071C45.5381 3.32094 45.4544 3.33483 45.3705 3.33155H44.7795V4.67526H44.347V1.05761H45.3705ZM45.5695 2.65021V1.73262C45.5714 1.65256 45.5418 1.57495 45.4871 1.51647C45.4595 1.48707 45.426 1.46394 45.3887 1.44865C45.3514 1.43336 45.3112 1.42627 45.2709 1.42786H44.7795V2.95511H45.2709C45.3112 2.95667 45.3514 2.94956 45.3886 2.93427C45.4259 2.91898 45.4595 2.89587 45.4871 2.8665C45.5418 2.80797 45.5714 2.73032 45.5695 2.65021Z" fill="white"/>
<path d="M48.2159 4.72508C48.1325 4.72607 48.0496 4.7103 47.9724 4.67872C47.8951 4.64714 47.8249 4.60037 47.7661 4.5412C47.7072 4.48203 47.6608 4.41165 47.6296 4.33422C47.5984 4.25679 47.583 4.17389 47.5844 4.09043V1.05761H48.02V4.00642C48.0178 4.08992 48.0485 4.17096 48.1055 4.23203C48.1324 4.2617 48.1653 4.28524 48.2021 4.30108C48.2388 4.31691 48.2786 4.32466 48.3186 4.32381H48.7447C48.7843 4.32486 48.8237 4.31717 48.8599 4.30131C48.8962 4.28545 48.9286 4.2618 48.9547 4.23203C49.01 4.1701 49.0395 4.08939 49.0371 4.00642V1.05761H49.4789V4.09043C49.481 4.17407 49.4661 4.25726 49.4351 4.33498C49.4041 4.4127 49.3577 4.48334 49.2987 4.54264C49.2397 4.60195 49.1693 4.64869 49.0917 4.68004C49.0142 4.7114 48.9311 4.72672 48.8474 4.72508H48.2159ZM48.3373 0.821214L48.5862 -1.90735e-06H49.0123L48.6825 0.821214H48.3373Z" fill="white"/>
<path d="M52.6818 2.82758C52.7893 2.86728 52.8832 2.9369 52.9524 3.02822C53.0236 3.12258 53.0609 3.2382 53.0582 3.35639V4.06243C53.0606 4.14408 53.0462 4.22534 53.0158 4.30117C52.9855 4.377 52.9398 4.44579 52.8818 4.50325C52.8238 4.56072 52.7545 4.60564 52.6784 4.63523C52.6023 4.66482 52.5208 4.67844 52.4392 4.67525H51.3131V1.05761H52.3584C52.4411 1.05428 52.5236 1.06788 52.6009 1.09756C52.6782 1.12725 52.7485 1.17239 52.8078 1.23024C52.8648 1.28746 52.9096 1.35575 52.9393 1.43091C52.969 1.50607 52.983 1.58651 52.9804 1.66728V2.32362C52.9825 2.43004 52.9539 2.53481 52.898 2.62536C52.8449 2.71061 52.7704 2.78036 52.6818 2.82758ZM52.237 1.41852H51.7394V2.6752H52.2744C52.3116 2.67596 52.3485 2.66839 52.3824 2.65303C52.4163 2.63767 52.4463 2.61492 52.4703 2.58645C52.5231 2.52468 52.5509 2.44536 52.5481 2.36412V1.73881C52.5507 1.65488 52.5212 1.57311 52.4657 1.51017C52.4365 1.47914 52.401 1.45486 52.3615 1.43903C52.322 1.4232 52.2795 1.4162 52.237 1.41852ZM52.6321 3.99406V3.31287C52.6318 3.23292 52.5999 3.15634 52.5434 3.09981C52.4869 3.04328 52.4103 3.0114 52.3304 3.01113H51.7394V4.31131H52.3179C52.3603 4.31321 52.4027 4.306 52.4421 4.29017C52.4816 4.27434 52.5171 4.25026 52.5465 4.21954C52.6035 4.15853 52.6343 4.07754 52.6321 3.99406Z" fill="white"/>
<path d="M55.1912 4.27398H56.2862V4.67525H54.7588V1.05761H55.1912L55.1912 4.27398Z" fill="white"/>
<path d="M57.822 4.67525V1.05761H58.2543V4.67525H57.822Z" fill="white"/>
<path d="M60.7048 4.72508C60.6211 4.72694 60.538 4.71146 60.4606 4.6796C60.3833 4.64774 60.3133 4.60019 60.2552 4.53996C60.1961 4.4812 60.1495 4.41108 60.1182 4.33382C60.087 4.25656 60.0717 4.17376 60.0733 4.09043V1.63625C60.0714 1.55172 60.0865 1.46766 60.1177 1.38909C60.149 1.31053 60.1958 1.23907 60.2552 1.17897C60.3131 1.1183 60.3829 1.07036 60.4603 1.03821C60.5377 1.00607 60.621 0.990417 60.7048 0.992267H61.2771C61.3611 0.990121 61.4447 1.00563 61.5224 1.03779C61.6001 1.06995 61.6701 1.11804 61.7281 1.17897C61.7871 1.2393 61.8335 1.31084 61.8645 1.38937C61.8955 1.46791 61.9104 1.55185 61.9085 1.63625V2.17742H61.4762V1.72013C61.4783 1.63703 61.4495 1.5561 61.3953 1.49307C61.3693 1.46266 61.3368 1.43849 61.3001 1.42236C61.2635 1.40622 61.2237 1.39853 61.1838 1.39985H60.8073C60.7668 1.39877 60.7265 1.40671 60.6894 1.42311C60.6523 1.4395 60.6193 1.46394 60.5928 1.49465C60.5373 1.5565 60.5073 1.63706 60.5087 1.72013V4.00024C60.5074 4.08376 60.5374 4.16476 60.5928 4.2273C60.619 4.25843 60.6519 4.28326 60.6891 4.29996C60.7262 4.31667 60.7666 4.32482 60.8073 4.32381H61.1838C61.2239 4.32506 61.2638 4.31716 61.3005 4.30071C61.3371 4.28426 61.3695 4.2597 61.3953 4.22888C61.4494 4.16516 61.4782 4.08379 61.4762 4.00024V3.56162H61.9085V4.09043C61.9104 4.1739 61.8954 4.25691 61.8644 4.33443C61.8334 4.41196 61.787 4.48241 61.7281 4.54153C61.6696 4.60161 61.5994 4.64893 61.5218 4.68052C61.4442 4.71211 61.3609 4.72728 61.2771 4.72508H60.7048Z" fill="white"/>
<path d="M65.0431 4.67525L64.8378 3.72032H63.9388L63.7367 4.67525H63.2949L64.1753 1.04525H64.6138L65.4942 4.67525H65.0431ZM64.0228 3.35639H64.7538L64.393 1.64861L64.0228 3.35639Z" fill="white"/>
<path d="M69.7976 4.72508C69.7159 4.7265 69.6348 4.71075 69.5595 4.67887C69.4842 4.64698 69.4164 4.59966 69.3606 4.53996C69.3023 4.48075 69.2564 4.41048 69.2257 4.33328C69.195 4.25608 69.18 4.17351 69.1816 4.09043V3.60514H69.6141V4.00642C69.6122 4.08828 69.6404 4.168 69.6934 4.23046C69.7175 4.26025 69.7481 4.28414 69.7829 4.30032C69.8177 4.3165 69.8557 4.32453 69.894 4.32381H70.2766C70.3158 4.32415 70.3546 4.31597 70.3903 4.29986C70.426 4.28374 70.4578 4.26006 70.4834 4.23046C70.5399 4.16971 70.5706 4.08937 70.569 4.00642V3.42173C70.569 3.36357 70.5517 3.30673 70.5193 3.25843C70.4868 3.20822 70.4403 3.1687 70.3855 3.14484L69.5767 2.83994C69.4647 2.79765 69.3678 2.72295 69.2984 2.62536C69.2297 2.53043 69.1931 2.41598 69.1941 2.29877V1.62994C69.1927 1.54627 69.2082 1.46318 69.2398 1.38567C69.2713 1.30816 69.3182 1.23784 69.3777 1.17897C69.4344 1.11899 69.5029 1.07144 69.5789 1.0393C69.6549 1.00717 69.7368 0.99115 69.8193 0.992267H70.3668C70.4494 0.990757 70.5314 1.00659 70.6075 1.03875C70.6836 1.07091 70.7521 1.11868 70.8086 1.17897C70.8672 1.23832 70.9133 1.30879 70.9443 1.38623C70.9753 1.46368 70.9905 1.54654 70.9889 1.62994V2.09656H70.5565V1.71395C70.5581 1.63115 70.5287 1.55075 70.4741 1.48847C70.4494 1.45839 70.4183 1.43423 70.3831 1.4178C70.3478 1.40137 70.3093 1.39308 70.2704 1.39354H69.9188C69.8795 1.39327 69.8406 1.40163 69.8049 1.41803C69.7692 1.43443 69.7375 1.45848 69.712 1.48847C69.6557 1.54991 69.6251 1.63062 69.6266 1.71395V2.22409C69.6267 2.28272 69.644 2.34002 69.6763 2.38897C69.7081 2.43982 69.7564 2.47824 69.8131 2.49783L70.6219 2.80891C70.7332 2.85092 70.83 2.92442 70.9003 3.02046C70.9692 3.11412 71.0057 3.22765 71.0045 3.3439V4.09043C71.006 4.1739 70.9905 4.25681 70.959 4.3341C70.9274 4.41139 70.8805 4.48143 70.8209 4.53996C70.764 4.5995 70.6954 4.64667 70.6194 4.67852C70.5434 4.71037 70.4617 4.72622 70.3793 4.72508H69.7976Z" fill="white"/>
<path d="M73.1624 4.28016H74.3009V4.67525H72.73V1.05761H74.2697V1.45271H73.1624V2.6627H73.996V3.03912H73.1624V4.28016Z" fill="white"/>
<path d="M77.2396 4.67525L76.5833 3.2537H76.3095V4.67525H75.8833V1.05761H76.9192C77.0022 1.05631 77.0845 1.07192 77.1613 1.10347C77.238 1.13503 77.3075 1.18187 77.3656 1.24116C77.4249 1.29765 77.4719 1.36575 77.5037 1.44121C77.5356 1.51667 77.5515 1.59788 77.5506 1.67977V2.63155C77.5474 2.77694 77.4944 2.91682 77.4004 3.0278C77.3064 3.13878 77.1771 3.21412 77.0342 3.24121L77.7248 4.67525H77.2396ZM76.3095 1.41852V2.8991H76.8197C76.8595 2.89958 76.8991 2.8915 76.9355 2.87539C76.972 2.85929 77.0046 2.83554 77.0311 2.80575C77.0872 2.74847 77.1185 2.67138 77.1183 2.59118V1.72644C77.1185 1.6462 77.0872 1.56908 77.0311 1.51174C77.0046 1.48197 76.972 1.45824 76.9355 1.44216C76.8991 1.42608 76.8595 1.41802 76.8197 1.41852L76.3095 1.41852Z" fill="white"/>
<path d="M79.2949 4.67525V1.05761H79.7272V4.67525H79.2949Z" fill="white"/>
<path d="M82.019 4.28016H83.1575V4.67525H81.5865V1.05761H83.1263V1.45271H82.019V2.6627H82.8526V3.03912H82.019V4.28016Z" fill="white"/>
<path d="M85.247 4.72508C85.1652 4.7265 85.0841 4.71075 85.0088 4.67887C84.9335 4.64698 84.8658 4.59966 84.8099 4.53996C84.7516 4.48075 84.7058 4.41048 84.675 4.33328C84.6443 4.25608 84.6293 4.17351 84.631 4.09043V3.60514H85.0634V4.00642C85.0615 4.08828 85.0897 4.168 85.1427 4.23046C85.1668 4.26025 85.1975 4.28414 85.2322 4.30032C85.267 4.3165 85.305 4.32453 85.3433 4.32381H85.7259C85.7651 4.32415 85.8039 4.31597 85.8396 4.29986C85.8753 4.28374 85.9071 4.26006 85.9328 4.23046C85.9893 4.16971 86.02 4.08937 86.0183 4.00642V3.42173C86.0183 3.36357 86.001 3.30673 85.9686 3.25843C85.9362 3.20822 85.8896 3.1687 85.8348 3.14484L85.0261 2.83994C84.914 2.79765 84.8171 2.72295 84.7477 2.62536C84.679 2.53043 84.6425 2.41598 84.6435 2.29877V1.62994C84.642 1.54627 84.6576 1.46318 84.6891 1.38567C84.7206 1.30816 84.7676 1.23784 84.827 1.17897C84.8837 1.11899 84.9522 1.07144 85.0283 1.0393C85.1043 1.00717 85.1861 0.99115 85.2687 0.992267H85.8161C85.8987 0.990757 85.9807 1.00659 86.0568 1.03875C86.1329 1.07091 86.2014 1.11868 86.2579 1.17897C86.3165 1.23832 86.3627 1.30879 86.3937 1.38623C86.4246 1.46368 86.4398 1.54654 86.4383 1.62994V2.09656H86.0059V1.71395C86.0074 1.63115 85.978 1.55074 85.9234 1.48847C85.8988 1.45839 85.8677 1.43423 85.8324 1.4178C85.7971 1.40137 85.7587 1.39308 85.7198 1.39354H85.3682C85.3289 1.39327 85.29 1.40163 85.2542 1.41803C85.2185 1.43443 85.1868 1.45848 85.1614 1.48847C85.105 1.54991 85.0745 1.63062 85.0759 1.71395V2.22409C85.0761 2.28272 85.0933 2.34002 85.1256 2.38897C85.1575 2.43982 85.2058 2.47824 85.2625 2.49783L86.0712 2.80891C86.1826 2.85092 86.2793 2.92442 86.3497 3.02046C86.4185 3.11412 86.4551 3.22765 86.4538 3.3439V4.09043C86.4554 4.1739 86.4399 4.25681 86.4083 4.3341C86.3768 4.41139 86.3298 4.48143 86.2703 4.53996C86.2133 4.5995 86.1447 4.64667 86.0687 4.67852C85.9928 4.71037 85.911 4.72622 85.8286 4.72508H85.247Z" fill="white"/>
</g>
<defs>
<clipPath id="clip0_4047_776">
<rect width="100.093" height="49.4726" fill="white" transform="translate(0.953613)"/>
</clipPath>
</defs>
</svg>
