<svg width="19" height="20" viewBox="0 0 19 20" fill="none" xmlns="http://www.w3.org/2000/svg">
<path d="M11.54 8.10501H17.073C19.619 8.10501 16.309 19 14.485 19H1.964C1.71062 19.0021 1.46676 18.9036 1.286 18.726C1.10525 18.5485 1.00238 18.3064 1 18.053V8.66802C1 8.32102 1.193 8.00202 1.502 7.83602C3.564 6.73002 5.983 5.82401 7.18 3.70701L8.46 1.44102C8.53631 1.30638 8.64715 1.19453 8.7811 1.11701C8.91504 1.03949 9.06724 0.999105 9.222 1.00002C12.402 1.00002 11.459 5.63002 11.027 7.47002C11.0096 7.54663 11.0098 7.62618 11.0276 7.7027C11.0454 7.77922 11.0803 7.85072 11.1296 7.91183C11.179 7.97294 11.2416 8.02206 11.3126 8.05552C11.3837 8.08898 11.4614 8.1059 11.54 8.10501Z" stroke="white" stroke-linecap="round" stroke-linejoin="round"/>
</svg>
